<svg xmlns="http://www.w3.org/2000/svg" viewBox="0 0 1600 620" width="1600" height="620" preserveAspectRatio="xMidYMid slice" role="img" aria-label="Live webinar session">
  <defs>
    <linearGradient id="wbg" x1="0" y1="0" x2="1" y2="1">
      <stop offset="0%" stop-color="#0A2540"/>
      <stop offset="55%" stop-color="#0B3E77"/>
      <stop offset="100%" stop-color="#154C8C"/>
    </linearGradient>
    <radialGradient id="wglow" cx="0.74" cy="0.42" r="0.55">
      <stop offset="0%" stop-color="#5B8FD1" stop-opacity="0.55"/>
      <stop offset="100%" stop-color="#5B8FD1" stop-opacity="0"/>
    </radialGradient>
  </defs>
  <rect width="1600" height="620" fill="url(#wbg)"/>
  <rect width="1600" height="620" fill="url(#wglow)"/>
  <g opacity="0.09" stroke="#FFFFFF" stroke-width="1.5" fill="none">
    <circle cx="1180" cy="300" r="150"/><circle cx="1180" cy="300" r="240"/><circle cx="1180" cy="300" r="330"/>
  </g>
  <g transform="translate(1000 170)" opacity="0.95">
    <rect width="360" height="228" rx="18" fill="#FFFFFF" fill-opacity="0.12" stroke="#FFFFFF" stroke-opacity="0.28" stroke-width="2"/>
    <rect x="26" y="26" width="308" height="150" rx="10" fill="#FFFFFF" fill-opacity="0.10"/>
    <path d="M160 78 l64 36 -64 36 z" fill="#FFFFFF" fill-opacity="0.85"/>
    <circle cx="46" cy="202" r="7" fill="#EF4444"/>
    <rect x="62" y="196" width="52" height="12" rx="6" fill="#FFFFFF" fill-opacity="0.55"/>
    <rect x="250" y="196" width="84" height="12" rx="6" fill="#FFFFFF" fill-opacity="0.28"/>
  </g>
  <g fill="#FFFFFF" fill-opacity="0.14">
    <circle cx="880" cy="470" r="30"/><circle cx="962" cy="500" r="22"/><circle cx="1400" cy="450" r="26"/>
  </g>
  <rect y="0" width="820" height="620" fill="#07203A" fill-opacity="0.45"/>
</svg>
